<?xml version="1.0" standalone="no"?><svg xmlns="http://www.w3.org/2000/svg" viewBox="0 0 1440 320"><path fill="#5000ca" fill-opacity="1" d="M0,96L34.3,128C68.6,160,137,224,206,213.3C274.3,203,343,117,411,101.3C480,85,549,139,617,176C685.7,213,754,235,823,208C891.4,181,960,107,1029,90.7C1097.1,75,1166,117,1234,112C1302.9,107,1371,53,1406,26.7L1440,0L1440,0L1405.7,0C1371.4,0,1303,0,1234,0C1165.7,0,1097,0,1029,0C960,0,891,0,823,0C754.3,0,686,0,617,0C548.6,0,480,0,411,0C342.9,0,274,0,206,0C137.1,0,69,0,34,0L0,0Z"></path></svg>